<?xml version="1.0" standalone="no"?>
<!DOCTYPE svg PUBLIC "-//W3C//DTD SVG 20010904//EN"
 "http://www.w3.org/TR/2001/REC-SVG-20010904/DTD/svg10.dtd">
<svg version="1.0" xmlns="http://www.w3.org/2000/svg"
 width="150.000000pt" height="33.000000pt" viewBox="0 0 150.000000 33.000000"
 preserveAspectRatio="xMidYMid meet">
<g transform="translate(0.000000,33.000000) scale(0.100000,-0.100000)"
fill="#000000" stroke="none">
<path d="M7 323 c-4 -3 -7 -75 -7 -160 l0 -153 50 0 49 0 3 102 3 102 30 -102
30 -102 45 0 46 0 36 107 36 108 1 -107 c1 -105 2 -108 24 -109 12 0 32 -2 45
-3 l22 -3 0 164 0 163 -69 0 -69 0 -21 -62 c-12 -35 -27 -80 -35 -101 l-13
-38 -32 100 -32 101 -68 0 c-37 0 -71 -3 -74 -7z"/>
<path d="M1197 323 c-4 -3 -7 -75 -7 -160 l0 -153 45 0 45 0 1 98 0 97 47 -97
47 -98 63 0 63 0 -3 158 -3 157 -42 3 -42 3 -3 -101 -3 -101 -44 100 -45 101
-56 0 c-31 0 -60 -3 -63 -7z"/>
<path d="M499 288 c-35 -49 -38 -142 -7 -187 49 -72 111 -96 193 -75 36 9 59
22 83 50 42 49 43 70 2 49 -37 -19 -113 -19 -150 0 -16 8 -42 32 -57 52 -23
29 -28 47 -28 90 0 29 -3 53 -7 53 -4 0 -17 -14 -29 -32z"/>
<path d="M859 288 c-35 -49 -38 -142 -7 -187 49 -72 111 -96 193 -75 36 9 59
22 83 50 42 49 43 70 2 49 -37 -19 -113 -19 -150 0 -16 8 -42 32 -57 52 -23
29 -28 47 -28 90 0 29 -3 53 -7 53 -4 0 -17 -14 -29 -32z"/>
</g>
</svg>
